<svg xmlns="http://www.w3.org/2000/svg" xmlns:xlink="http://www.w3.org/1999/xlink" width="1920" zoomAndPan="magnify" viewBox="0 0 1440 809.999993" height="1080" preserveAspectRatio="xMidYMid meet" version="1.0"><defs><g/></defs><g fill="#ff2600" fill-opacity="1"><g transform="translate(440.542957, 204.978344)"><g><path d="M 3.992188 0 L 69.664062 0 C 124.359375 0 156.496094 -41.71875 156.496094 -96.214844 C 156.496094 -150.90625 124.359375 -192.625 69.664062 -192.625 L 3.992188 -192.625 C 8.582031 -188.632812 10.980469 -177.65625 10.980469 -167.675781 L 10.980469 -24.953125 C 10.980469 -14.972656 8.582031 -3.992188 3.992188 0 Z M 55.890625 -37.925781 L 55.890625 -154.699219 L 73.855469 -154.699219 C 94.21875 -154.699219 111.582031 -132.542969 111.582031 -96.214844 C 111.582031 -60.082031 94.21875 -37.925781 73.855469 -37.925781 Z M 55.890625 -37.925781 "/></g></g></g><g fill="#ff2600" fill-opacity="1"><g transform="translate(604.025301, 204.978344)"><g><path d="M 75.054688 2.996094 C 95.8125 2.996094 116.175781 -6.585938 127.953125 -25.152344 C 119.765625 -32.535156 109.785156 -42.71875 103.199219 -53.097656 C 100.207031 -47.90625 91.421875 -36.730469 76.851562 -36.730469 C 61.878906 -36.730469 52.097656 -45.113281 48.90625 -59.285156 L 72.257812 -59.285156 C 113.179688 -59.285156 127.550781 -79.644531 127.550781 -99.804688 C 127.550781 -120.964844 107.390625 -142.722656 77.050781 -142.722656 C 29.34375 -142.722656 5.988281 -109.386719 5.988281 -69.863281 C 5.988281 -30.339844 27.945312 2.996094 75.054688 2.996094 Z M 48.503906 -61.480469 C 48.105469 -64.074219 47.90625 -66.871094 47.90625 -69.863281 C 47.90625 -93.417969 64.273438 -105.996094 75.851562 -105.996094 C 84.4375 -105.996094 87.828125 -99.804688 87.828125 -94.417969 C 87.828125 -77.050781 67.667969 -65.074219 48.503906 -61.480469 Z M 48.503906 -61.480469 "/></g></g></g><g fill="#ff2600" fill-opacity="1"><g transform="translate(735.968924, 204.978344)"><g><path d="M 3.992188 -98.210938 C 3.992188 -49.105469 75.652344 -56.691406 75.652344 -41.71875 C 75.652344 -35.730469 66.070312 -35.132812 60.28125 -35.132812 C 39.523438 -35.132812 19.363281 -45.910156 13.972656 -50.503906 C 11.378906 -37.925781 8.183594 -23.953125 3.992188 -11.976562 C 20.160156 -2.195312 35.332031 2.996094 56.289062 2.996094 C 86.03125 2.996094 116.175781 -14.570312 116.175781 -44.511719 C 116.175781 -90.226562 44.3125 -86.632812 44.3125 -100.207031 C 44.3125 -104.199219 48.105469 -106.59375 54.496094 -106.59375 C 72.257812 -106.59375 97.410156 -95.8125 104.398438 -88.628906 C 107.191406 -101.402344 112.382812 -119.167969 116.175781 -129.148438 C 103.597656 -137.332031 81.042969 -142.722656 62.277344 -142.722656 C 33.734375 -142.722656 3.992188 -128.550781 3.992188 -98.210938 Z M 3.992188 -98.210938 "/></g></g></g><g fill="#ff2600" fill-opacity="1"><g transform="translate(856.135453, 204.978344)"><g><path d="M -7.984375 -180.25 L -7.984375 -179.253906 C 11.179688 -179.253906 11.578125 -156.296875 11.578125 -150.707031 L 11.578125 -24.75 C 11.578125 -14.769531 9.183594 -3.992188 4.589844 0 L 59.484375 0 C 54.894531 -3.992188 52.5 -14.972656 52.5 -24.953125 L 52.5 -89.027344 C 55.292969 -98.410156 61.480469 -107.992188 74.054688 -107.992188 C 83.835938 -107.992188 91.421875 -100.804688 91.421875 -88.027344 L 91.421875 -24.75 C 91.421875 -14.769531 89.027344 -3.992188 84.4375 0 L 139.328125 0 C 134.738281 -3.992188 132.34375 -14.972656 132.34375 -24.953125 L 132.34375 -98.007812 C 132.34375 -128.152344 116.773438 -142.722656 91.421875 -142.722656 C 84.035156 -142.722656 78.046875 -140.527344 72.859375 -137.53125 L 52.5 -96.8125 L 52.5 -202.605469 C 39.125 -194.421875 11.777344 -181.25 -7.984375 -180.25 Z M -7.984375 -180.25 "/></g></g></g><g fill="#ffffff" fill-opacity="1"><g transform="translate(446.929671, 483.978329)"><g><path d="M 27.546875 -135.9375 C 45.511719 -80.644531 53.296875 -53.097656 69.664062 0 L 106.59375 0 C 129.347656 -37.128906 163.28125 -94.015625 163.28125 -145.515625 C 163.28125 -184.042969 146.316406 -192.625 146.316406 -192.625 L 101.203125 -192.625 C 101.203125 -192.625 117.972656 -176.855469 117.972656 -139.730469 C 117.972656 -115.574219 107.992188 -81.640625 95.8125 -68.46875 C 86.433594 -101.003906 65.074219 -161.285156 65.074219 -177.257812 C 65.074219 -182.644531 67.269531 -188.234375 71.859375 -192.625 L 1.996094 -192.625 C 15.171875 -177.855469 19.960938 -159.089844 27.546875 -135.9375 Z M 27.546875 -135.9375 "/></g></g></g><g fill="#ffffff" fill-opacity="1"><g transform="translate(612.208535, 483.978329)"><g><path d="M 1.996094 -119.96875 C 9.78125 -109.386719 15.371094 -100.804688 21.757812 -88.429688 C 29.144531 -99.804688 40.722656 -104.996094 55.09375 -104.996094 C 70.863281 -104.996094 82.242188 -95.613281 85.632812 -79.84375 C 79.445312 -82.640625 72.460938 -84.035156 64.675781 -84.035156 C 33.933594 -84.035156 5.390625 -61.679688 5.390625 -33.734375 C 5.390625 -13.375 15.371094 2.996094 40.320312 2.996094 C 51.101562 2.996094 59.882812 -3.394531 61.878906 -6.585938 C 67.667969 -15.769531 78.847656 -33.136719 86.632812 -45.113281 L 86.632812 -23.953125 C 86.632812 -11.777344 92.222656 2.996094 102.203125 2.996094 C 107.191406 2.996094 127.753906 -9.582031 143.320312 -17.765625 L 143.320312 -18.761719 C 128.949219 -18.761719 127.550781 -31.738281 127.550781 -42.917969 L 127.550781 -83.039062 C 127.550781 -122.164062 92.820312 -142.722656 54.695312 -142.722656 C 31.9375 -142.722656 14.570312 -134.738281 1.996094 -119.96875 Z M 47.90625 -49.105469 C 47.90625 -61.28125 61.082031 -78.449219 77.847656 -78.449219 C 81.042969 -78.449219 83.835938 -77.648438 86.234375 -76.453125 C 86.433594 -74.457031 86.632812 -72.257812 86.632812 -70.0625 L 86.632812 -52.296875 C 80.84375 -42.117188 71.460938 -35.929688 62.277344 -35.929688 C 51.5 -35.929688 47.90625 -42.71875 47.90625 -49.105469 Z M 47.90625 -49.105469 "/></g></g></g><g fill="#ffffff" fill-opacity="1"><g transform="translate(749.541681, 483.978329)"><g><path d="M 3.992188 -98.210938 C 3.992188 -49.105469 75.652344 -56.691406 75.652344 -41.71875 C 75.652344 -35.730469 66.070312 -35.132812 60.28125 -35.132812 C 39.523438 -35.132812 19.363281 -45.910156 13.972656 -50.503906 C 11.378906 -37.925781 8.183594 -23.953125 3.992188 -11.976562 C 20.160156 -2.195312 35.332031 2.996094 56.289062 2.996094 C 86.03125 2.996094 116.175781 -14.570312 116.175781 -44.511719 C 116.175781 -90.226562 44.3125 -86.632812 44.3125 -100.207031 C 44.3125 -104.199219 48.105469 -106.59375 54.496094 -106.59375 C 72.257812 -106.59375 97.410156 -95.8125 104.398438 -88.628906 C 107.191406 -101.402344 112.382812 -119.167969 116.175781 -129.148438 C 103.597656 -137.332031 81.042969 -142.722656 62.277344 -142.722656 C 33.734375 -142.722656 3.992188 -128.550781 3.992188 -98.210938 Z M 3.992188 -98.210938 "/></g></g></g><g fill="#ffffff" fill-opacity="1"><g transform="translate(869.708186, 483.978329)"><g><path d="M -7.984375 -120.367188 L -7.984375 -119.367188 C 11.179688 -119.367188 11.578125 -96.414062 11.578125 -90.824219 L 11.578125 -24.75 C 11.578125 -14.769531 9.183594 -3.992188 4.589844 0 L 59.484375 0 C 54.894531 -3.992188 52.5 -14.972656 52.5 -24.953125 L 52.5 -142.722656 C 39.125 -134.539062 11.777344 -121.363281 -7.984375 -120.367188 Z M 32.738281 -152.304688 C 47.507812 -152.304688 59.484375 -164.28125 59.484375 -178.851562 C 59.484375 -193.625 47.507812 -205.601562 32.738281 -205.601562 C 18.164062 -205.601562 6.1875 -193.625 6.1875 -178.851562 C 6.1875 -164.28125 18.164062 -152.304688 32.738281 -152.304688 Z M 32.738281 -152.304688 "/></g></g></g><g fill="#000000" fill-opacity="1"><g transform="translate(933.175744, 483.978329)"><g/></g></g><g fill="#125931" fill-opacity="1"><g transform="translate(383.753897, 762.978315)"><g><path d="M 3.992188 -32.738281 C 9.183594 -15.570312 41.320312 2.996094 74.855469 2.996094 C 119.566406 2.996094 153.703125 -19.761719 153.703125 -58.886719 C 153.703125 -126.554688 58.886719 -105.195312 58.886719 -136.933594 C 58.886719 -149.910156 74.65625 -155.097656 87.429688 -155.097656 C 105.394531 -155.097656 121.363281 -145.917969 132.742188 -135.535156 C 139.527344 -148.910156 148.3125 -160.289062 155.097656 -170.667969 C 143.121094 -180.847656 124.558594 -195.621094 86.433594 -195.621094 C 47.109375 -195.621094 7.785156 -173.464844 7.785156 -135.738281 C 7.785156 -67.269531 104.597656 -84.4375 104.597656 -55.09375 C 104.597656 -41.519531 90.824219 -36.128906 76.050781 -36.128906 C 55.691406 -36.128906 37.128906 -49.902344 26.75 -66.472656 C 20.960938 -54.695312 12.574219 -43.117188 3.992188 -32.738281 Z M 3.992188 -32.738281 "/></g></g></g><g fill="#125931" fill-opacity="1"><g transform="translate(542.844804, 762.978315)"><g><path d="M 1.996094 -119.96875 C 9.78125 -109.386719 15.371094 -100.804688 21.757812 -88.429688 C 29.144531 -99.804688 40.722656 -104.996094 55.09375 -104.996094 C 70.863281 -104.996094 82.242188 -95.613281 85.632812 -79.84375 C 79.445312 -82.640625 72.460938 -84.035156 64.675781 -84.035156 C 33.933594 -84.035156 5.390625 -61.679688 5.390625 -33.734375 C 5.390625 -13.375 15.371094 2.996094 40.320312 2.996094 C 51.101562 2.996094 59.882812 -3.394531 61.878906 -6.585938 C 67.667969 -15.769531 78.847656 -33.136719 86.632812 -45.113281 L 86.632812 -23.953125 C 86.632812 -11.777344 92.222656 2.996094 102.203125 2.996094 C 107.191406 2.996094 127.753906 -9.582031 143.320312 -17.765625 L 143.320312 -18.761719 C 128.949219 -18.761719 127.550781 -31.738281 127.550781 -42.917969 L 127.550781 -83.039062 C 127.550781 -122.164062 92.820312 -142.722656 54.695312 -142.722656 C 31.9375 -142.722656 14.570312 -134.738281 1.996094 -119.96875 Z M 47.90625 -49.105469 C 47.90625 -61.28125 61.082031 -78.449219 77.847656 -78.449219 C 81.042969 -78.449219 83.835938 -77.648438 86.234375 -76.453125 C 86.433594 -74.457031 86.632812 -72.257812 86.632812 -70.0625 L 86.632812 -52.296875 C 80.84375 -42.117188 71.460938 -35.929688 62.277344 -35.929688 C 51.5 -35.929688 47.90625 -42.71875 47.90625 -49.105469 Z M 47.90625 -49.105469 "/></g></g></g><g fill="#125931" fill-opacity="1"><g transform="translate(680.17795, 762.978315)"><g><path d="M 0 -101.800781 L 11.777344 -101.800781 L 11.777344 -47.507812 C 11.777344 -15.371094 27.148438 2.996094 56.890625 2.996094 C 69.664062 2.996094 82.640625 -1.597656 89.425781 -7.984375 C 87.230469 -16.96875 83.636719 -28.542969 82.441406 -40.519531 C 78.648438 -36.128906 74.054688 -33.734375 67.867188 -33.734375 C 57.886719 -33.734375 52.5 -38.324219 52.5 -56.492188 L 52.5 -101.800781 L 82.640625 -101.800781 L 82.640625 -139.730469 L 52.5 -139.730469 L 52.5 -181.046875 L 51.5 -181.046875 C 40.320312 -165.078125 14.769531 -145.917969 0 -139.730469 Z M 0 -101.800781 "/></g></g></g><g fill="#125931" fill-opacity="1"><g transform="translate(775.592534, 762.978315)"><g><path d="M -7.984375 -180.25 L -7.984375 -179.253906 C 11.179688 -179.253906 11.578125 -156.296875 11.578125 -150.707031 L 11.578125 -24.75 C 11.578125 -14.769531 9.183594 -3.992188 4.589844 0 L 59.484375 0 C 54.894531 -3.992188 52.5 -14.972656 52.5 -24.953125 L 52.5 -89.027344 C 55.292969 -98.410156 61.480469 -107.992188 74.054688 -107.992188 C 83.835938 -107.992188 91.421875 -100.804688 91.421875 -88.027344 L 91.421875 -24.75 C 91.421875 -14.769531 89.027344 -3.992188 84.4375 0 L 139.328125 0 C 134.738281 -3.992188 132.34375 -14.972656 132.34375 -24.953125 L 132.34375 -98.007812 C 132.34375 -128.152344 116.773438 -142.722656 91.421875 -142.722656 C 84.035156 -142.722656 78.046875 -140.527344 72.859375 -137.53125 L 52.5 -96.8125 L 52.5 -202.605469 C 39.125 -194.421875 11.777344 -181.25 -7.984375 -180.25 Z M -7.984375 -180.25 "/></g></g></g><g fill="#125931" fill-opacity="1"><g transform="translate(918.914031, 762.978315)"><g><path d="M 1.996094 -119.96875 C 9.78125 -109.386719 15.371094 -100.804688 21.757812 -88.429688 C 29.144531 -99.804688 40.722656 -104.996094 55.09375 -104.996094 C 70.863281 -104.996094 82.242188 -95.613281 85.632812 -79.84375 C 79.445312 -82.640625 72.460938 -84.035156 64.675781 -84.035156 C 33.933594 -84.035156 5.390625 -61.679688 5.390625 -33.734375 C 5.390625 -13.375 15.371094 2.996094 40.320312 2.996094 C 51.101562 2.996094 59.882812 -3.394531 61.878906 -6.585938 C 67.667969 -15.769531 78.847656 -33.136719 86.632812 -45.113281 L 86.632812 -23.953125 C 86.632812 -11.777344 92.222656 2.996094 102.203125 2.996094 C 107.191406 2.996094 127.753906 -9.582031 143.320312 -17.765625 L 143.320312 -18.761719 C 128.949219 -18.761719 127.550781 -31.738281 127.550781 -42.917969 L 127.550781 -83.039062 C 127.550781 -122.164062 92.820312 -142.722656 54.695312 -142.722656 C 31.9375 -142.722656 14.570312 -134.738281 1.996094 -119.96875 Z M 47.90625 -49.105469 C 47.90625 -61.28125 61.082031 -78.449219 77.847656 -78.449219 C 81.042969 -78.449219 83.835938 -77.648438 86.234375 -76.453125 C 86.433594 -74.457031 86.632812 -72.257812 86.632812 -70.0625 L 86.632812 -52.296875 C 80.84375 -42.117188 71.460938 -35.929688 62.277344 -35.929688 C 51.5 -35.929688 47.90625 -42.71875 47.90625 -49.105469 Z M 47.90625 -49.105469 "/></g></g></g></svg>